<?xml version="1.0" standalone="no"?>
<!DOCTYPE svg PUBLIC "-//W3C//DTD SVG 20010904//EN"
 "http://www.w3.org/TR/2001/REC-SVG-20010904/DTD/svg10.dtd">
<svg version="1.0" xmlns="http://www.w3.org/2000/svg"
 width="1254.000000pt" height="1254.000000pt" viewBox="0 0 1254.000000 1254.000000"
 preserveAspectRatio="xMidYMid meet">

<g transform="translate(0.000000,1254.000000) scale(0.100000,-0.100000)"
fill="#000000" stroke="none">
<path d="M3160 11639 c-41 -5 -122 -18 -180 -30 -1004 -202 -1759 -970 -1940
-1973 -40 -221 -41 -321 -38 -3481 4 -3362 -1 -3095 64 -3369 179 -749 701
-1372 1409 -1681 170 -74 343 -126 565 -168 l115 -22 3050 -3 c2201 -2 3078 0
3150 8 1096 123 1971 965 2142 2060 17 109 18 287 18 3305 0 3041 -1 3195 -18
3298 -46 271 -111 476 -227 712 -362 741 -1050 1232 -1873 1340 -104 13 -474
15 -3140 14 -1662 -1 -3056 -5 -3097 -10z m644 -2339 c73 -79 361 -407 587
-671 107 -124 316 -367 464 -540 261 -302 523 -611 1080 -1274 310 -369 325
-385 355 -385 16 0 41 19 75 58 55 59 685 800 1095 1287 129 154 338 401 464
549 126 149 370 438 542 642 172 203 324 376 339 382 17 8 95 12 236 12 l211
0 29 -29 29 -30 -2 -1413 -3 -1413 -160 -6 c-170 -7 -317 -22 -427 -43 -37 -7
-70 -11 -73 -8 -3 3 -5 386 -5 851 l-1 846 -36 -40 c-40 -45 -871 -1014 -1188
-1386 -693 -812 -1098 -1279 -1116 -1284 -44 -14 -75 5 -150 93 -40 48 -211
249 -379 447 -168 198 -449 531 -625 740 -297 354 -658 780 -1040 1227 -120
140 -166 188 -182 188 l-23 0 0 -2440 0 -2441 -25 -24 -24 -25 -271 0 c-283 0
-318 5 -334 45 -3 9 -6 1384 -6 3055 l0 3038 31 27 32 26 224 -3 225 -3 52
-55z m5838 -3180 c22 -27 23 -107 8 -311 -38 -484 -149 -896 -344 -1284 -313
-619 -815 -1056 -1437 -1249 -225 -69 -372 -93 -629 -103 -144 -5 -177 -3
-187 8 -24 29 68 438 106 470 13 10 49 18 108 22 428 32 930 296 1219 640 259
308 441 717 518 1162 23 129 29 119 -66 111 -273 -21 -659 -155 -941 -325
-509 -307 -893 -806 -1109 -1441 -122 -359 -171 -689 -171 -1159 1 -274 -1
-295 -18 -312 -17 -17 -36 -19 -203 -19 l-185 0 -21 27 c-22 28 -22 29 -17
388 6 453 33 680 118 1020 271 1076 1008 1910 1969 2228 351 117 639 158 1045
152 212 -3 220 -4 237 -25z"/>
</g>
</svg>
